<?xml version="1.0" encoding="us-ascii" standalone="no"?><svg xmlns="http://www.w3.org/2000/svg" xmlns:xlink="http://www.w3.org/1999/xlink" contentStyleType="text/css" height="570px" preserveAspectRatio="none" style="width:523px;height:570px;background:#FFFFFF;" version="1.1" viewBox="0 0 523 570" width="523px" zoomAndPan="magnify"><defs/><g><!--cluster System--><g id="cluster_System"><rect fill="none" height="557.5" rx="2.5" ry="2.5" style="stroke:#181818;stroke-width:1.0;" width="440" x="77" y="7"/><text fill="#000000" font-family="sans-serif" font-size="14" font-weight="bold" lengthAdjust="spacing" textLength="50" x="272" y="23.5332">System</text></g><g id="elem_Solicitar Registro"><ellipse cx="177.1203" cy="60.8241" fill="#F1F1F1" rx="77.1203" ry="17.8241" style="stroke:#181818;stroke-width:0.5;"/><text fill="#000000" font-family="sans-serif" font-size="14" lengthAdjust="spacing" textLength="107" x="121.2783" y="65.1856">Solicitar Registro</text></g><g id="elem_Validar Dados"><ellipse cx="186.0039" cy="178.0008" fill="#F1F1F1" rx="70.5039" ry="16.5008" style="stroke:#181818;stroke-width:0.5;"/><text fill="#000000" font-family="sans-serif" font-size="14" lengthAdjust="spacing" textLength="89" x="138.5039" y="182.5174">Validar Dados</text></g><g id="elem_Criar Conta de Usu&#225;rio"><ellipse cx="186.0017" cy="293.5003" fill="#F1F1F1" rx="93.0017" ry="21.0003" style="stroke:#181818;stroke-width:0.5;"/><text fill="#000000" font-family="sans-serif" font-size="14" lengthAdjust="spacing" textLength="145" x="113.5017" y="297.2289">Criar Conta de Usu&#225;rio</text></g><g id="elem_Banco de Dados"><ellipse cx="169.855" cy="417.171" fill="#F1F1F1" rx="76.355" ry="17.671" style="stroke:#181818;stroke-width:0.5;"/><text fill="#000000" font-family="sans-serif" font-size="14" lengthAdjust="spacing" textLength="105" x="114.6233" y="421.6255">Banco de Dados</text></g><g id="elem_Enviar Email de Confirma&#231;&#227;o"><ellipse cx="391.0226" cy="416.8045" fill="#F1F1F1" rx="109.5226" ry="24.3045" style="stroke:#181818;stroke-width:0.5;"/><text fill="#000000" font-family="sans-serif" font-size="14" lengthAdjust="spacing" textLength="182" x="300.0226" y="420.533">Enviar Email de Confirma&#231;&#227;o</text></g><g id="elem_Exibir mensagem Sucesso"><ellipse cx="390.8449" cy="525.269" fill="#F1F1F1" rx="101.8449" ry="22.769" style="stroke:#181818;stroke-width:0.5;"/><text fill="#000000" font-family="sans-serif" font-size="14" lengthAdjust="spacing" textLength="165" x="308.3449" y="528.9975">Exibir mensagem Sucesso</text></g><g id="elem_Exibir Mensagem Erro"><ellipse cx="403.9659" cy="293.3932" fill="#F1F1F1" rx="89.9659" ry="20.3932" style="stroke:#181818;stroke-width:0.5;"/><text fill="#000000" font-family="sans-serif" font-size="14" lengthAdjust="spacing" textLength="138" x="334.9659" y="297.1217">Exibir Mensagem Erro</text></g><!--entity User--><g id="elem_User"><ellipse cx="33" cy="38" fill="#F1F1F1" rx="16" ry="16" style="stroke:#181818;stroke-width:0.5;"/><path d="M33,58 C37,58 40,58 44,54 C52,54 60,62 60,70 L60,74 C60,78 56,82 52,82 L14,82 C10,82 6,78 6,74 L6,70 C6,62 14,54 22,54 C26,58 29,58 33,58 " fill="#F1F1F1" style="stroke:#181818;stroke-width:0.5;"/><text fill="#000000" font-family="sans-serif" font-size="14" lengthAdjust="spacing" textLength="29" x="18.5" y="97.0332">User</text></g><!--link User to Solicitar Registro--><g id="link_User_Solicitar Registro"><path d="M60.56,61 C73.6,61 80.64,61 93.68,61 " fill="none" id="User-to-Solicitar Registro" style="stroke:#181818;stroke-width:1.0;"/><polygon fill="#181818" points="99.68,61,90.68,57,94.68,61,90.68,65,99.68,61" style="stroke:#181818;stroke-width:1.0;"/></g><!--link Solicitar Registro to Validar Dados--><g id="link_Solicitar Registro_Validar Dados"><path d="M178.37,79.47 C180.11,101.71 182.6204,133.8384 184.3004,155.2384 " fill="none" id="Solicitar Registro-to-Validar Dados" style="stroke:#181818;stroke-width:1.0;"/><polygon fill="#181818" points="184.77,161.22,188.0534,151.9346,184.3787,156.2353,180.0779,152.5607,184.77,161.22" style="stroke:#181818;stroke-width:1.0;"/></g><!--link Validar Dados to Criar Conta de Usu?rio--><g id="link_Validar Dados_Criar Conta de Usu&#225;rio"><path d="M186,194.78 C186,215 186,244.09 186,266.26 " fill="none" id="Validar Dados-to-Criar Conta de Usu&#225;rio" style="stroke:#181818;stroke-width:1.0;"/><polygon fill="#181818" points="186,272.26,190,263.26,186,267.26,182,263.26,186,272.26" style="stroke:#181818;stroke-width:1.0;"/><text fill="#000000" font-family="sans-serif" font-size="13" lengthAdjust="spacing" textLength="78" x="187" y="238.9951">dados v&#225;lidos</text></g><!--link Criar Conta de Usu?rio to Banco de Dados--><g id="link_Criar Conta de Usu&#225;rio_Banco de Dados"><path d="M183.36,314.56 C180.23,338.29 175.874,371.3914 172.964,393.4714 " fill="none" id="Criar Conta de Usu&#225;rio-to-Banco de Dados" style="stroke:#181818;stroke-width:1.0;"/><polygon fill="#181818" points="172.18,399.42,177.3217,391.0198,172.8333,394.4629,169.3903,389.9745,172.18,399.42" style="stroke:#181818;stroke-width:1.0;"/><text fill="#000000" font-family="sans-serif" font-size="13" lengthAdjust="spacing" textLength="81" x="179" y="358.9951">Inserir usu&#225;rio</text></g><!--link Criar Conta de Usu?rio to Enviar Email de Confirma??o--><g id="link_Criar Conta de Usu&#225;rio_Enviar Email de Confirma&#231;&#227;o"><path d="M218.03,313.48 C254.74,335.24 309.6689,367.7901 348.4789,390.8001 " fill="none" id="Criar Conta de Usu&#225;rio-to-Enviar Email de Confirma&#231;&#227;o" style="stroke:#181818;stroke-width:1.0;"/><polygon fill="#181818" points="353.64,393.86,347.9383,385.8294,349.3391,391.31,343.8584,392.7108,353.64,393.86" style="stroke:#181818;stroke-width:1.0;"/><text fill="#000000" font-family="sans-serif" font-size="13" lengthAdjust="spacing" textLength="80" x="295" y="358.9951">Email enviado</text></g><!--link Enviar Email de Confirma??o to Exibir mensagem Sucesso--><g id="link_Enviar Email de Confirma&#231;&#227;o_Exibir mensagem Sucesso"><path d="M391,441.64 C391,459.77 391,478.64 391,496.38 " fill="none" id="Enviar Email de Confirma&#231;&#227;o-to-Exibir mensagem Sucesso" style="stroke:#181818;stroke-width:1.0;"/><polygon fill="#181818" points="391,502.38,395,493.38,391,497.38,387,493.38,391,502.38" style="stroke:#181818;stroke-width:1.0;"/></g><!--link Validar Dados to Exibir Mensagem Erro--><g id="link_Validar Dados_Exibir Mensagem Erro"><path d="M213.76,193.31 C231.09,202.26 253.86,214.03 274,224.5 C306.43,241.36 338.036,257.9041 364.226,271.6341 " fill="none" id="Validar Dados-to-Exibir Mensagem Erro" style="stroke:#181818;stroke-width:1.0;"/><polygon fill="#181818" points="369.54,274.42,363.4262,266.6985,365.1116,272.0984,359.7117,273.7839,369.54,274.42" style="stroke:#181818;stroke-width:1.0;"/><text fill="#000000" font-family="sans-serif" font-size="13" lengthAdjust="spacing" textLength="88" x="307" y="238.9951">dados inv&#225;lidos</text></g><!--SRC=[ZP0zKiCm48Lxds9BKkG2AIW8BYXey8H-8o-U7Io9sPK3cGo7oL1m45-CLMpnCyEVEhtztblf0O3UStX0GG_eKfGcxNi2V2IDdYg0IOMDabJvAkGIXiwOPg-9F1ooQYSJi3o7ioRsx3YXm0rrh4dYOaQ-6y4oUswnvzRaIsoZBgh2VvKdT2rioZg6XD2IhHt6ex05hQ3D6Ep6excYbf0V3QUu2mmkPdtUiOAhO3zXWM46_vTJXrqUrnwvpsFZxbWyZg_Zo-bnquGorhvd_k6QafzuQy_n51GxAxmP7AcMKd-hQdPU5sSjygad3gKf-8Xwhju0]--></g></svg>